<?xml version="1.0" encoding="iso-8859-1"?>
<!-- Generator: Adobe Illustrator 25.0.0, SVG Export Plug-In . SVG Version: 6.00 Build 0)  -->
<svg version="1.1" baseProfile="basic" id="Layer_1"
	 xmlns="http://www.w3.org/2000/svg" xmlns:xlink="http://www.w3.org/1999/xlink" x="0px" y="0px" viewBox="0 0 64 64"
	 xml:space="preserve">
<path d="M42.861,39.595c-0.453,1.271-2.678,2.499-3.676,2.585c-1.006,0.094-1.945,0.453-6.541-1.357
	c-5.544-2.183-9.04-7.863-9.313-8.23c-0.273-0.357-2.218-2.952-2.218-5.628c0-2.686,1.408-4,1.901-4.547
	c0.502-0.546,1.091-0.682,1.458-0.682c0.357,0,0.724,0,1.041,0.016c0.392,0.009,0.82,0.035,1.228,0.939
	c0.486,1.074,1.544,3.769,1.679,4.043c0.136,0.273,0.231,0.598,0.042,0.955c-0.18,0.367-0.273,0.589-0.537,0.913
	c-0.273,0.315-0.572,0.708-0.82,0.946c-0.273,0.273-0.554,0.572-0.238,1.117c0.315,0.544,1.408,2.328,3.027,3.769
	c2.081,1.859,3.837,2.431,4.383,2.704c0.546,0.273,0.862,0.231,1.177-0.136c0.325-0.358,1.364-1.586,1.731-2.132
	c0.357-0.546,0.724-0.453,1.219-0.273c0.502,0.18,3.181,1.501,3.727,1.775c0.546,0.273,0.904,0.409,1.041,0.631
	C43.313,37.232,43.313,38.323,42.861,39.595z"/>
<path id="circle_23_" d="M32,10c12.15,0,22,9.85,22,22s-9.85,22-22,22c-3.894,0-7.549-1.016-10.722-2.791l-11.063,2.475
	l2.816-10.547C11.107,39.87,10,36.065,10,32C10,19.85,19.85,10,32,10z M32,50c9.941,0,18-8.059,18-18c0-9.941-8.059-18-18-18
	s-18,8.059-18,18c0,3.896,1.251,7.493,3.354,10.439l-1.563,5.856l6.139-1.373C24.804,48.865,28.269,50,32,50z"/>
</svg>